<?xml version="1.0" standalone="no"?><!DOCTYPE svg PUBLIC "-//W3C//DTD SVG 1.1//EN" "http://www.w3.org/Graphics/SVG/1.1/DTD/svg11.dtd"><svg t="1614876669054" class="icon" viewBox="0 0 1024 1024" version="1.1" xmlns="http://www.w3.org/2000/svg" p-id="17245" xmlns:xlink="http://www.w3.org/1999/xlink" width="200" height="200"><defs><style type="text/css"></style></defs><path d="M693.8 63.7H208.9C142 63.7 87.7 118 87.7 184.9v654.3c0 66.9 54.3 121.2 121.2 121.2H815c66.9 0 121.2-54.3 121.2-121.2V306.1L693.8 63.7z m181.9 775.5c0 33.4-27.2 60.6-60.6 60.6H208.9c-33.5 0-60.6-27.2-60.6-60.6V184.8c0-33.5 27.1-60.6 60.6-60.6H602c-0.5 72.6 0.9 181.8 0.9 181.8 0 67 54.3 90.9 121.2 90.9h151.5v442.3zM724.1 336.4c-33.5 0-60.6-27.1-60.6-60.6V124.2l212.1 212.1H724.1z m0 0" fill="#FF4466" p-id="17246"></path><path d="M693.9 513H330.2c-16.7 0-30.3 13.5-30.3 30.3s13.6 30.3 30.3 30.3h363.7c16.7 0 30.3-13.6 30.3-30.3-0.1-16.7-13.6-30.3-30.3-30.3z m0 0M693.9 664.6H330.2c-16.7 0-30.3 13.5-30.3 30.3s13.6 30.3 30.3 30.3h363.7c16.7 0 30.3-13.6 30.3-30.3-0.1-16.8-13.6-30.3-30.3-30.3z m0 0" fill="#FF4466" p-id="17247"></path></svg>