<?xml version="1.0" standalone="no"?><!DOCTYPE svg PUBLIC "-//W3C//DTD SVG 1.1//EN" "http://www.w3.org/Graphics/SVG/1.1/DTD/svg11.dtd"><svg t="1614712364014" class="icon" viewBox="0 0 1024 1024" version="1.1" xmlns="http://www.w3.org/2000/svg" p-id="7669" xmlns:xlink="http://www.w3.org/1999/xlink" width="200" height="200"><defs><style type="text/css"></style></defs><path d="M738.4 881.5H624.1c-9.9 0-18-8.1-18-18s8.1-18 18-18h114.4c24.6 0 44.6-20 44.6-44.6V608.3c0-9.9 8.1-18 18-18s18 8.1 18 18v192.6c0 44.5-36.2 80.6-80.7 80.6z" p-id="7670" fill="#707070"></path><path d="M908.8 556.2c-3.5 3.5-8.1 5.3-12.8 5.3-4.6 0-9.2-1.8-12.7-5.3l-372-370.4-270.6 271.9v343.2c0 24.7 20.1 44.7 44.7 44.7h96.3V672.2c0-9.9 8.1-18 18-18H624c9.9 0 18 8.1 18 18s-8.1 18-18 18H417.7v173.4c0 9.9-8.1 18-18 18H285.4c-44.5 0-80.7-36.2-80.7-80.7v-307l-64 64.4c-3.5 3.5-8.1 5.3-12.8 5.3-4.6 0-9.2-1.8-12.7-5.2-7-7-7.1-18.4-0.1-25.5l94.7-95.2 0.2-0.2 288.4-289.8c7-7 18.4-7.1 25.5-0.1l384.8 383.2c7.1 6.9 7.1 18.3 0.1 25.4z" p-id="7671" fill="#707070"></path></svg>