<?xml version="1.0" standalone="no"?><!DOCTYPE svg PUBLIC "-//W3C//DTD SVG 1.1//EN" "http://www.w3.org/Graphics/SVG/1.1/DTD/svg11.dtd"><svg t="1614883486939" class="icon" viewBox="0 0 1257 1024" version="1.1" xmlns="http://www.w3.org/2000/svg" p-id="20751" xmlns:xlink="http://www.w3.org/1999/xlink" width="245.5078125" height="200"><defs><style type="text/css"></style></defs><path d="M809.092 284.333c10.732 0 24.145 0 34.877 2.682-32.195-147.556-187.798-257.551-370.23-257.551-201.213 0-364.865 136.824-364.865 311.208 0 101.947 53.656 182.432 147.556 246.819l-37.559 109.996 128.776-64.387c45.608 10.732 80.485 18.78 126.093 18.78 13.414 0 24.145 0 34.877 0-5.365-24.145-10.732-50.974-10.732-77.802 0-160.97 136.824-289.746 311.208-289.746zM613.246 185.067c26.828 0 45.608 18.78 45.608 45.608s-18.78 45.608-45.608 45.608c-29.512 0-56.34-18.78-56.34-45.608 0-26.828 26.828-45.608 56.34-45.608zM355.694 276.284c-26.828 0-53.656-18.78-53.656-45.608s26.828-45.608 53.656-45.608c26.828 0 45.608 18.78 45.608 45.608 0 26.828-18.78 45.608-45.608 45.608z" p-id="20752" fill="#50B674"></path><path d="M1144.446 568.712c0-144.873-147.556-265.6-311.208-265.6-174.383 0-311.208 120.727-311.208 265.6 0 147.556 136.824 265.6 311.208 265.6 34.877 0 72.437-8.049 109.996-16.097l99.265 53.656-26.828-91.217c72.437-56.34 128.776-128.776 128.776-211.943zM731.292 523.105c-18.78 0-37.559-16.097-37.559-34.877s18.78-37.559 37.559-37.559c26.828 0 45.608 18.78 45.608 37.559 0 18.78-18.78 34.877-45.608 34.877zM932.503 523.105c-18.781 0-34.877-16.097-34.877-34.877s16.097-37.559 34.877-37.559c26.828 0 45.608 18.78 45.608 37.559 0 18.78-18.781 34.877-45.608 34.877z" p-id="20753" fill="#50B674"></path></svg>