<?xml version="1.0" standalone="no"?><!DOCTYPE svg PUBLIC "-//W3C//DTD SVG 1.1//EN" "http://www.w3.org/Graphics/SVG/1.1/DTD/svg11.dtd"><svg t="1614876704426" class="icon" viewBox="0 0 1024 1024" version="1.1" xmlns="http://www.w3.org/2000/svg" p-id="18184" xmlns:xlink="http://www.w3.org/1999/xlink" width="200" height="200"><defs><style type="text/css"></style></defs><path d="M479.232 337.92c0-12.288 10.24-22.528 22.528-22.528s22.528 10.24 22.528 22.528v307.2c0 12.288-10.24 22.528-22.528 22.528s-22.528-10.24-22.528-22.528v-307.2z m0 409.6c0-12.288 10.24-22.528 22.528-22.528s22.528 10.24 22.528 22.528v61.44c0 12.288-10.24 22.528-22.528 22.528s-22.528-10.24-22.528-22.528v-61.44z m389.12-141.312c6.144 10.24 4.096 22.528-6.144 28.672-10.24 6.144-22.528 4.096-28.672-6.144l-288.768-452.608c-28.672-45.056-67.584-43.008-94.208 2.048l-370.688 626.688c-26.624 45.056-10.24 75.776 43.008 75.776h768c51.2 0 69.632-30.72 45.056-77.824l-40.96-73.728c-6.144-10.24-2.048-22.528 8.192-28.672s22.528-2.048 28.672 8.192l40.96 73.728c40.96 73.728 2.048 137.216-79.872 137.216H122.88c-83.968 0-120.832-65.536-77.824-137.216l370.688-626.688c43.008-71.68 118.784-73.728 163.84-2.048l288.768 452.608z" p-id="18185" fill="#FF4466"></path></svg>