<?xml version="1.0" standalone="no"?><!DOCTYPE svg PUBLIC "-//W3C//DTD SVG 1.1//EN" "http://www.w3.org/Graphics/SVG/1.1/DTD/svg11.dtd"><svg t="1614196879023" class="icon" viewBox="0 0 1024 1024" version="1.1" xmlns="http://www.w3.org/2000/svg" p-id="9680" xmlns:xlink="http://www.w3.org/1999/xlink" width="200" height="200"><defs><style type="text/css"></style></defs><path d="M741.2 396.6h-439v-51.1c0-112.9 90-204.7 200.7-204.7 87.7 0 164.6 57.1 191.2 142.1 6.3 20.2 27.5 31.4 47.3 24.9 19.8-6.4 30.7-28 24.4-48.2C729.2 142.6 623.6 64.1 503 64.1c-152.2 0-276 126.2-276 281.4v55.8c-71.8 17.4-125.4 83.1-125.4 161.4v230.6c0 91.6 73.2 166.1 163.1 166.1h476.6c89.9 0 163.1-74.5 163.1-166.1V562.7c0-91.6-73.2-166.1-163.2-166.1z m87.9 396.7c0 49.3-39.4 89.3-87.9 89.3H264.7c-48.4 0-87.9-40.1-87.9-89.3V562.7c0-49.3 39.4-89.3 87.9-89.3h476.6c48.4 0 87.9 40.1 87.9 89.3v230.6z" p-id="9681" fill="#cdcdcd"></path><path d="M503 524.5c-62.3 0-112.9 51.6-112.9 115.1 0 50 31.6 92.2 75.3 108v46.5c0 21.2 16.9 38.4 37.6 38.4s37.6-17.2 37.6-38.4v-46.5c43.7-15.9 75.3-58.1 75.3-108 0-63.4-50.7-115.1-112.9-115.1z m0 153.5c-20.8 0-37.6-17.2-37.6-38.4s16.9-38.4 37.6-38.4c20.8 0 37.6 17.2 37.6 38.4S523.7 678 503 678z" p-id="9682" fill="#cdcdcd"></path></svg>