<?xml version="1.0" standalone="no"?><!DOCTYPE svg PUBLIC "-//W3C//DTD SVG 1.1//EN" "http://www.w3.org/Graphics/SVG/1.1/DTD/svg11.dtd"><svg t="1614201466126" class="icon" viewBox="0 0 1024 1024" version="1.1" xmlns="http://www.w3.org/2000/svg" p-id="11642" xmlns:xlink="http://www.w3.org/1999/xlink" width="200" height="200"><defs><style type="text/css"></style></defs><path d="M631.90660741 429.23045925h4.36906667c-14.80628148-78.88592592-91.99312592-138.96059259-184.8357926-138.96059258-103.52260741 0-187.50577778 74.63822222-187.50577778 166.63134815 0 39.80705185 15.65582222 76.21594075 41.87022222 104.8576v75.60912593l58.0114963-33.25345186c26.2144 12.37902222 55.94832592 19.29671111 87.62405926 19.29671111 3.64088889 0 7.40314075-0.12136297 11.04402963-0.24272592-2.66998518-11.04402963-4.00497778-22.57351111-4.00497778-34.46708149-0.24272592-87.86678518 77.55093333-159.47093333 173.42767408-159.47093334z m-118.08616296-41.62749628c15.29173333 0 27.79211852 12.37902222 27.79211852 27.79211851 0 15.29173333-12.37902222 27.79211852-27.79211852 27.79211852s-27.79211852-12.37902222-27.79211853-27.79211852c0-15.29173333 12.50038518-27.79211852 27.79211853-27.79211851z m-125.00385186 55.58423703c-15.29173333 0-27.79211852-12.37902222-27.79211851-27.79211852 0-15.29173333 12.37902222-27.79211852 27.79211851-27.79211851s27.79211852 12.37902222 27.79211852 27.79211851c0 15.29173333-12.37902222 27.79211852-27.79211852 27.79211852z m243.09001482 13.83537778c-80.58500741 0-145.87828148 59.10376297-145.87828149 131.92154074s65.29327408 131.92154075 145.87828149 131.92154073c15.53445925 0 30.4621037-2.18453333 44.54020741-6.31087407l59.46785185 34.1029926v-67.23508148c25.85031111-23.78714075 41.87022222-56.43377778 41.87022222-92.47857778-0.12136297-72.81777778-65.41463703-131.92154075-145.87828148-131.92154074z m-41.74885926 111.16847407c-11.52948148 0-20.87442963-9.34494815-20.87442963-20.87442963s9.34494815-20.87442963 20.87442963-20.87442963 20.87442963 9.34494815 20.87442963 20.87442963-9.34494815 20.87442963-20.87442963 20.87442963z m97.21173333 0c-11.52948148 0-20.87442963-9.34494815-20.87442963-20.87442963s9.34494815-20.87442963 20.87442963-20.87442963 20.87442963 9.34494815 20.87442963 20.87442963-9.34494815 20.87442963-20.87442963 20.87442963zM513.82044445 26.54814815C245.36557037 26.54814815 27.76177778 244.15194075 27.76177778 512.60681482S245.36557037 998.66548148 513.82044445 998.66548148 999.87911111 781.06168889 999.87911111 512.60681482 782.27531852 26.54814815 513.82044445 26.54814815z m0 930.48983703c-245.39591111 0-444.43117037-198.9138963-444.43117037-444.43117036 0-245.39591111 198.9138963-444.43117037 444.43117037-444.43117037 245.39591111 0 444.43117037 198.9138963 444.43117037 444.43117037 0 245.39591111-199.03525925 444.43117037-444.43117037 444.43117036z" p-id="11643" fill="#dbdbdb"></path></svg>