<?xml version="1.0" standalone="no"?><!DOCTYPE svg PUBLIC "-//W3C//DTD SVG 1.1//EN" "http://www.w3.org/Graphics/SVG/1.1/DTD/svg11.dtd"><svg t="1614195416283" class="icon" viewBox="0 0 1024 1024" version="1.1" xmlns="http://www.w3.org/2000/svg" p-id="6791" xmlns:xlink="http://www.w3.org/1999/xlink" width="200" height="200"><defs><style type="text/css"></style></defs><path d="M538.08 540.96c79.248-9.056 141.04-77.088 141.04-159.968 0-89.056-71.392-160.992-159.12-160.992-87.728 0-159.12 71.936-159.12 160.992 0 80.4 58.144 146.816 133.984 159.008h33.536c3.312 0 6.56 0.32 9.664 0.96z m-191.072 23.44a253.184 253.184 0 0 1-78.128-183.408C268.88 241.28 381.312 128 520 128s251.12 113.28 251.12 252.992c0 130.88-98.624 238.544-225.072 251.664a47.872 47.872 0 0 1-17.648 3.344h-61.664C350.4 636 256 731.136 256 848.672v1.76a48 48 0 1 1-96 0v-1.76a308.8 308.8 0 0 1 187.008-284.272zM720.64 696.64a48 48 0 1 1 67.44-68.32A308.8 308.8 0 0 1 880 848.656v2.832a48 48 0 0 1-96 0v-2.816a212.8 212.8 0 0 0-63.36-152.016z" p-id="6792" fill="#cdcdcd"></path></svg>