<?xml version="1.0" standalone="no"?><!DOCTYPE svg PUBLIC "-//W3C//DTD SVG 1.1//EN" "http://www.w3.org/Graphics/SVG/1.1/DTD/svg11.dtd"><svg t="1614066277453" class="icon" viewBox="0 0 1024 1024" version="1.1" xmlns="http://www.w3.org/2000/svg" p-id="11202" xmlns:xlink="http://www.w3.org/1999/xlink" width="200" height="200"><defs><style type="text/css"></style></defs><path d="M732.403575 451.48469a35.997762 35.997762 0 0 0 71.995525 0 216.741018 216.741018 0 0 0-216.094352-216.094352 35.997762 35.997762 0 0 0 0 71.995525 144.476049 144.476049 0 0 1 144.098827 144.098827z m144.098827 0a35.997762 35.997762 0 0 0 71.995525 0 361.055401 361.055401 0 0 0-360.193179-360.193179 36.051651 36.051651 0 0 0 0 72.049413 289.005987 289.005987 0 0 1 288.197654 288.143766zM390.263166 325.438633a105.783844 105.783844 0 0 0 7.221108-144.098827L285.826544 40.905421A108.31662 108.31662 0 0 0 134.506609 22.852651c-3.610554 3.664443-7.167219 3.664443-7.167219 7.221108l-96.999959 96.999959c-93.60496 93.60496 39.662205 345.750963 280.976547 587.011415s489.688123 370.970952 583.293083 280.922657l96.999958-96.999958a104.382733 104.382733 0 0 0 0-151.266046l-7.167219-7.221109-140.488273-111.657729a105.729955 105.729955 0 0 0-144.044938 7.221108l-61.217752 61.27164a849.342414 849.342414 0 0 1-306.142646-306.196535l57.607197-64.666639z m-50.386089-96.999959a33.680541 33.680541 0 0 1-3.664443 46.883314l-79.216633 82.827186a38.261095 38.261095 0 0 0-7.167219 43.111093 920.206272 920.206272 0 0 0 370.917063 370.917063 38.261095 38.261095 0 0 0 43.111093-7.221108l82.827186-82.827187a34.003874 34.003874 0 0 1 46.883314-3.556665l140.434384 115.214395a3.502776 3.502776 0 0 1 3.556665 3.556665 34.812207 34.812207 0 0 1 0 50.439979l-96.999958 96.999958c-46.775536 46.775536-270.090995-72.049414-482.574794-280.976546S30.285543 228.115341 77.114967 181.232028l100.772179-100.826068a35.243318 35.243318 0 0 1 50.439978 7.221108l111.65773 140.488273z" p-id="11203" fill="#8a8a8a"></path></svg>