<?xml version="1.0" standalone="no"?><!DOCTYPE svg PUBLIC "-//W3C//DTD SVG 1.1//EN" "http://www.w3.org/Graphics/SVG/1.1/DTD/svg11.dtd"><svg t="1614047936046" class="icon" viewBox="0 0 1293 1024" version="1.1" xmlns="http://www.w3.org/2000/svg" p-id="6586" xmlns:xlink="http://www.w3.org/1999/xlink" width="252.5390625" height="200"><defs><style type="text/css"></style></defs><path d="M0 617.903a143.13 143.13 0 0 1 21.979-50.41 282.378 282.378 0 0 1 46.036-50.509 31.23 31.23 0 0 1 43.712 2.367c11.762 12.714 11.127 31.576-1.14 44.319-11.545 11.934-23.09 23.84-33.755 36.468-4.906 5.772-8.413 12.988-11.545 20.06-4.055 9.25-2.886 14.82 5.513 20.116a145.872 145.872 0 0 0 30.493 14.995c33.539 11.285 68.52 15.037 103.617 16.798 80.816 4.055 161.631 1.443 242.201-4.82 135.077-10.506 267.615-34.333 396.948-75.173 109.678-34.635 214.118-80.816 312.741-139.984 21.489-12.902 42.14-26.958 58.952-45.848a90.686 90.686 0 0 0 11.185-15.745c4.834-8.587 4.214-13.147-3.478-19.165a90.917 90.917 0 0 0-21.33-13.06c-13.724-5.542-27.939-9.9-42.081-14.36-17.52-5.512-27.131-22.974-21.734-40.248 4.517-14.432 20.204-24.822 34.823-21.532 28.487 6.408 55.979 15.73 80.454 32.225 16.062 10.824 29.022 24.534 35.516 43.164 8.933 25.674 2.886 49.269-11.141 71.378-14.561 22.946-34.188 41.201-56.513 56.094-24.331 16.236-49.716 30.869-74.769 45.993-3.449 2.078-5.123 3.997-5.354 8.356-12.31 226.24-169.25 415.983-388.708 470a487.404 487.404 0 0 1-89.286 13.536 57.321 57.321 0 0 0-6.321 1.039H603.98c-2.093-0.39-4.156-0.88-6.263-1.14-19.223-2.324-38.72-3.305-57.64-7.115q-248.723-50.106-366.093-275.364c-3.204-6.191-7.057-7.908-13.176-8.659-27.621-3.117-54.969-7.706-81.364-16.784-6.09-2.092-12.165-4.329-18.053-6.955C30.407 694.143 6.898 673.665 0.014 638.525z m244.236 119.274c95.55 168.082 305.857 268.38 517.738 203.872 198.69-60.51 300.171-236.385 312.337-372.14-262.304 126.057-540.886 171.328-830.06 168.283z" p-id="6587" fill="#d4237a"></path><path d="M121.93 515.498c0.736-223.57 143.808-422.318 357.536-489.107 179.208-55.993 343.928-22.426 489.41 96.3 86.458 70.555 141.326 162.353 168.442 270.646 5.181 20.709-5.513 38.055-25.558 41.49-15.975 2.727-30.493-8.01-35.717-24.865-7.707-24.822-14.186-50.351-24.923-73.874-65.735-144.14-176.51-234.22-332.108-263.632-236.284-44.737-463.087 103.285-520.625 336.25-17.187 69.617-17.158 139.45-1.443 209.37 3.983 17.721-6.248 34.462-22.96 38.445-17.592 4.2-34-6.177-38.633-24.447-7.951-31.46-13.536-79.834-13.42-116.576z" p-id="6588" fill="#d4237a"></path><path d="M748.35 171.96c4.547 1.17 9.309 1.804 13.595 3.565Q903.372 233.87 955.613 377.65c6.494 17.808-1.847 35.515-18.832 41.577s-34.188-2.367-40.726-20.522c-22.21-61.65-60.813-110.082-116.893-144.053-13.739-8.327-28.762-14.547-43.294-21.474-14.143-6.725-21.43-21.055-18.054-36.252 3.074-14.07 15.759-24.186 30.537-24.966z m-125.22-19.525c17.318-0.419 28.863 6.277 34.448 18.991a31.749 31.749 0 0 1-6.466 34.635 29.656 29.656 0 0 1-20.622 9.467 280.56 280.56 0 0 0-88.796 17.78c-17.317 6.45-35.111-1.804-41.288-18.386s1.876-34.115 19.122-40.826a329.785 329.785 0 0 1 103.602-21.661z" p-id="6589" fill="#d4237a"></path></svg>