<?xml version="1.0" standalone="no"?><!DOCTYPE svg PUBLIC "-//W3C//DTD SVG 1.1//EN" "http://www.w3.org/Graphics/SVG/1.1/DTD/svg11.dtd"><svg t="1614065659562" class="icon" viewBox="0 0 1024 1024" version="1.1" xmlns="http://www.w3.org/2000/svg" p-id="10417" xmlns:xlink="http://www.w3.org/1999/xlink" width="200" height="200"><defs><style type="text/css"></style></defs><path d="M751.182769 1019.943385c-86.685538-1.496615-167.030154-25.993846-241.033846-70.025847-208.659692-124.179692-369.033846-292.824615-464.108308-518.144C6.616615 338.274462-2.638769 240.049231 31.744 141.863385c20.48-58.368 59.825231-100.430769 117.878154-124.455385 15.36-6.380308 29.538462-5.828923 43.244308 1.654154C259.938462 55.768615 309.523692 109.174154 341.976615 178.333538c9.728 20.755692 3.938462 39.345231-10.279384 56.32-22.291692 26.584615-44.622769 52.893538-58.801231 85.385847-29.026462 66.441846-14.217846 130.441846 12.288 192.078769 48.718769 113.309538 132.529231 192.433231 247.808 235.992615 63.369846 23.945846 125.006769 18.235077 180.578462-24.300307 9.373538-7.168 18.944-14.099692 28.750769-20.676924 34.894769-23.433846 57.698462-23.788308 92.278154-0.118153 51.751385 35.446154 90.978462 82.589538 124.731077 134.892307 16.226462 25.127385 15.123692 49.073231-0.196924 73.531077-43.086769 68.765538-107.126154 101.651692-186.28923 108.386462-7.168 0.669538-14.454154 0.118154-21.661539 0.118154z" p-id="10418" fill="#FF4466"></path><path d="M694.272 575.684923c-23.906462-10.673231-41.156923 5.789538-59.943385 22.212923-39.620923 34.658462-84.992 58.840615-137.64923 67.150769-10.082462 1.575385-23.473231 5.671385-29.932308-2.205538-5.553231-6.774154 5.12-16.108308 8.585846-24.221539 10.043077-23.473231 20.283077-46.828308 26.899692-71.60123 8.625231-32.256 7.561846-34.973538-20.676923-51.79077-47.537231-28.317538-84.243692-66.402462-104.96-118.429538-35.879385-89.993846-18.865231-171.401846 43.992616-242.806154 55.414154-62.976 129.851077-91.608615 210.432-104.211692 101.297231-15.832615 196.056615 6.262154 280.851692 62.582154 75.618462 50.215385 113.033846 125.085538 108.189538 214.921846-5.671385 105.196308-64.905846 175.931077-161.083076 215.788308-51.318154 21.307077-105.590154 29.971692-164.706462 32.610461z m172.937846-197.828923c37.100308 0.433231 68.332308-29.223385 69.316923-65.772308 1.063385-38.793846-29.656615-71.286154-67.702154-71.60123-37.691077-0.315077-68.686769 30.129231-69.080615 67.977846-0.433231 38.321231 29.341538 68.923077 67.465846 69.395692zM441.107692 308.499692c-0.275692 38.518154 29.105231 68.804923 67.308308 69.356308 37.454769 0.551385 69.513846-30.759385 69.435077-67.859692-0.078769-37.730462-31.035077-69.435077-67.938462-69.553231-37.769846-0.118154-68.529231 30.286769-68.804923 68.056615z m317.085539 0.669539c-0.551385-37.927385-31.389538-68.804923-68.608-68.686769-37.730462 0.157538-68.135385 30.956308-68.056616 68.923076 0.078769 38.360615 30.208 68.489846 68.411077 68.450462 37.888-0.039385 68.804923-31.153231 68.253539-68.686769z" p-id="10419" fill="#FF4466"></path></svg>