<?xml version="1.0" standalone="no"?><!DOCTYPE svg PUBLIC "-//W3C//DTD SVG 1.1//EN" "http://www.w3.org/Graphics/SVG/1.1/DTD/svg11.dtd"><svg t="1614011706421" class="icon" viewBox="0 0 1024 1024" version="1.1" xmlns="http://www.w3.org/2000/svg" p-id="1966" xmlns:xlink="http://www.w3.org/1999/xlink" width="200" height="200"><defs><style type="text/css"></style></defs><path d="M626.215385 322.953846C594.707692 291.446154 555.323077 275.692308 512 275.692308c-90.584615 0-161.476923 74.830769-161.476923 161.476923 0 90.584615 74.830769 161.476923 161.476923 161.476923s161.476923-74.830769 161.476923-161.476923c0-43.323077-15.753846-86.646154-47.261538-114.215385zM512 535.630769c-55.138462 0-102.4-47.261538-102.4-102.4 0-27.569231 11.815385-51.2 27.569231-70.892307 19.692308-19.692308 43.323077-31.507692 70.892307-31.507693 55.138462 0 102.4 47.261538 102.4 102.4 0 59.076923-43.323077 102.4-98.461538 102.4z" p-id="1967" fill="#2c2c2c"></path><path d="M791.630769 149.661538c-149.661538-153.6-393.846154-157.538462-547.446154-7.876923-7.876923 0-7.876923 3.938462-11.815384 7.876923-153.6 157.538462-153.6 409.6 0 571.076924l279.630769 287.507692 279.630769-287.507692c153.6-161.476923 153.6-413.538462 0-571.076924zM748.307692 677.415385l-236.307692 244.184615-236.307692-244.184615C141.784615 543.507692 141.784615 330.830769 275.692308 192.984615c126.030769-129.969231 334.769231-133.907692 468.676923-7.876923l7.876923 7.876923c126.030769 137.846154 126.030769 350.523077-3.938462 484.43077z" p-id="1968" fill="#2c2c2c"></path></svg>