<?xml version="1.0" standalone="no"?><!DOCTYPE svg PUBLIC "-//W3C//DTD SVG 1.1//EN" "http://www.w3.org/Graphics/SVG/1.1/DTD/svg11.dtd"><svg t="1614048652917" class="icon" viewBox="0 0 1024 1024" version="1.1" xmlns="http://www.w3.org/2000/svg" p-id="6922" xmlns:xlink="http://www.w3.org/1999/xlink" width="200" height="200"><defs><style type="text/css"></style></defs><path d="M716.832723 771.251397c25.361752 11.422807 52.123037 17.228351 79.494479 17.228351 106.916263 0 193.888677-86.993559 193.888677-193.908814 0-75.417709-42.226628-142.392913-110.203655-174.775487l-5.498453-2.633941-1.57674-5.864949c-24.402216-91.704648-103.019721-155.738819-191.139954-155.738819-35.017523 0-69.34132 10.152152-99.827981 29.478796 3.038698 10.326338 6.017992 20.902377 8.873442 31.670726 27.143891-19.383028 58.785418-29.844285 90.955546-29.844285 78.263091 0 147.125146 60.88069 163.738307 144.75903l1.693536 8.422369 7.997475 3.115219c62.988045 24.537135 103.686261 83.955867 103.686261 151.412349 0 89.64663-72.939831 162.602571-162.586461 162.602571-33.065225 0-65.034987-9.998102-92.397367-28.919989l-5.673646-3.92272 0-113.28162 84.800621-36.24589c7.952166-3.404188 11.653377-12.614927 8.242142-20.556018-3.394119-7.942098-12.643119-11.634247-20.526819-8.231066l-72.514937 30.998145 0-84.994945c0-8.633809-7.037939-15.651611-15.651611-15.651611-8.624748 0-15.653625 7.018809-15.653625 15.651611l0 145.085252-55.977291-33.727737c-0.307092 6.037122-2.017744 17.113569-9.54703 30.767574l65.52432 39.498042 0 49.418616-5.53772 3.92272c-27.729883 19.749524-60.283623 30.188631-94.147286 30.188631-12.80623 0-25.643672-1.574726-38.285785-4.652692-8.931839 8.537151-18.400334 16.537647-28.343059 23.999473 21.364525 7.941091 43.688586 11.959462 66.629851 11.959462 27.614094 0 55.620863-6.192178 80.992684-17.862672l18.691316-8.596556 0 165.06434-15.132072-2.307719c-48.814501-7.363154-99.493704-11.114708-150.682377-11.114708-63.765339 0-125.971055 5.731037-184.862193 16.960527l-15.623419 2.999431-0.308099-165.967491 12.249437-0.903152c74.148061-5.443076 138.307082-36.152252 180.611238-86.494157 33.835471-40.266275 69.783331-113.396402 48.871892-233.386719C514.289092 287.016016 428.76756 16.459112 284.35489 16.459112c-155.373329 0-241.963138 320.861556-260.048325 433.257141C6.538537 560.150478 42.987812 631.663591 76.706488 672.199704c42.881086 51.554162 108.742703 85.706794 180.660574 93.704269l11.691638 1.288779 0.308099 173.680026-9.796731 2.615818c-72.725371 19.402158-133.557732 46.995108-178.247135 80.665455l56.495823 0c89.204619-50.342912 221.33966-79.185373 363.319761-79.185373 141.988156 0 274.12521 28.842461 363.339898 79.185373l56.427356 0c-51.754527-38.84157-125.634764-69.994771-212.301094-89.03144l-10.345468-2.269458L698.259209 762.866282 716.832723 771.251397zM300.094098 622.414592 443.276388 503.692916c6.653319-5.53772 7.575601-15.38278 2.057011-22.037106-5.51859-6.653319-15.364657-7.614869-22.037106-2.077149L300.026638 581.802965l-0.221509-129.876658 92.166796-73.45635c6.759039-5.383671 7.8837-15.229738 2.499022-21.979715-5.374609-6.748971-15.219669-7.86457-21.997839-2.479892l-72.754569 57.937644-0.220502-130.317662c-0.020137-8.615686-7.048008-15.614358-15.671748-15.614358-4.182489 0-8.124339 1.654268-11.066379 4.614431-2.96117 2.94204-4.567109 6.884897-4.567109 11.057317l0.221509 130.855324-73.495617-58.533704c-6.758032-5.384678-16.613161-4.269079-21.988777 2.479892-5.384678 6.749978-4.25901 16.595037 2.490967 21.979715l93.080017 74.149068 0.221509 131.509782L142.653689 479.579668c-6.69158-5.53772-16.518516-4.576171-22.037106 2.077149-5.51859 6.653319-4.595301 16.498379 2.057011 22.037106L268.807992 624.839106l0.201372 111.278979-14.989099-2.057011c-61.082062-8.384109-116.933495-38.228394-153.267988-81.878719-42.497473-51.072884-58.294071-119.355996-45.688206-197.446914C81.609888 290.593384 172.815134 47.764348 284.35489 47.764348c102.741828 0 191.929331 203.465913 226.898525 404.470057 15.102874 86.821386 0.981687 156.758766-41.998071 207.868904-36.083786 42.922367-91.002868 69.651432-154.64235 75.303935l-14.316517 1.269648L300.094098 622.414592z" p-id="6923" fill="#FF4466"></path></svg>