<?xml version="1.0" standalone="no"?><!DOCTYPE svg PUBLIC "-//W3C//DTD SVG 1.1//EN" "http://www.w3.org/Graphics/SVG/1.1/DTD/svg11.dtd"><svg t="1614065174040" class="icon" viewBox="0 0 1024 1024" version="1.1" xmlns="http://www.w3.org/2000/svg" p-id="9585" xmlns:xlink="http://www.w3.org/1999/xlink" width="200" height="200"><defs><style type="text/css"></style></defs><path d="M1024 830.2592s-101.1712 20.343467-203.776 41.437867c-68.471467 76.253867-136.533333 152.302933-136.533333 152.302933l-146.773334-250.402133c-8.192 0.546133-16.520533 1.2288-24.917333 1.2288s-16.657067-0.682667-24.9856-1.2288L340.3776 1024l-136.533333-152.234667C101.102933 850.602667 0 830.190933 0 830.190933l159.5392-272.384a380.5184 380.5184 0 0 1-40.5504-170.461866C119.057067 173.4656 294.980267 0 512 0c217.088 0 393.0112 173.397333 393.0112 387.413333 0 61.2352-14.813867 118.9888-40.5504 170.461867L1024 830.2592z m-332.731733 77.550933s49.152-46.626133 95.300266-91.477333l131.618134-37.6832-92.706134-158.242133a392.874667 392.874667 0 0 1-218.999466 142.677333l84.7872 144.725333z m-585.386667-129.160533s66.082133 18.978133 131.618133 37.614933c46.148267 44.919467 95.300267 91.5456 95.300267 91.5456l84.7872-144.725333a392.942933 392.942933 0 0 1-218.999467-142.677333l-92.706133 158.242133zM512.068267 63.624533c-176.5376 0-319.488 143.36-319.488 320.3072a319.8976 319.8976 0 0 0 319.488 320.3072c176.401067 0 319.488-143.428267 319.488-320.3072A319.8976 319.8976 0 0 0 512 63.624533z" p-id="9586" fill="#FF4466"></path><path d="M343.722667 302.08h99.874133a548.181333 548.181333 0 0 0 8.533333-16.930133h28.8768l-8.3968 16.930133h213.469867v25.736533H459.093333c-9.147733 16.384-18.6368 31.812267-28.4672 46.2848v182.6816H402.773333v-145.408c-16.725333 20.48-34.4064 38.570667-52.906666 54.272-6.5536-9.8304-12.288-18.0224-17.134934-24.576A424.686933 424.686933 0 0 0 429.124267 327.68h-85.333334v-25.668267z m-0.682667-70.587733h96.324267v-32.768h27.716266v32.768H568.661333v-33.109334h27.716267v33.109334h94.890667v25.736533h-94.890667v26.8288h-27.716267v-26.8288H467.080533v22.801067h-27.716266v-22.801067H343.04V231.424z m114.551467 206.574933h109.909333v-18.0224l53.248-34.542933h-143.36v-24.9856h188.6208v24.9856l-70.792533 45.192533v7.3728h95.982933v25.736533H595.217067v48.878934c0 28.945067-13.243733 43.349333-39.799467 43.349333-15.291733 0-36.4544-0.068267-63.488-0.341333a576.3072 576.3072 0 0 0-4.778667-29.764267c22.391467 1.979733 42.871467 2.935467 61.371734 2.935467 12.629333 0 18.978133-6.826667 18.978133-20.616534v-44.4416h-109.909333v-25.736533z" p-id="9587" fill="#FF4466"></path></svg>