<?xml version="1.0" standalone="no"?><!DOCTYPE svg PUBLIC "-//W3C//DTD SVG 1.1//EN" "http://www.w3.org/Graphics/SVG/1.1/DTD/svg11.dtd"><svg t="1614063210138" class="icon" viewBox="0 0 1024 1024" version="1.1" xmlns="http://www.w3.org/2000/svg" p-id="8160" xmlns:xlink="http://www.w3.org/1999/xlink" width="200" height="200"><defs><style type="text/css"></style></defs><path d="M853.1 567.2c28.7-54 45-115.6 45-181C898.1 172.9 725.2 0 512 0 298.7 0 125.9 172.9 125.9 386.1c0 65.4 16.3 127 45 181L7.4 833.5l200.9 40.8L342.9 1024l144.2-245.7 2-6.7c7.6 0.5 15.3 0.7 23 0.7 7.7 0 15.4-0.2 23-0.7l2 6.7 144 245.7 134.6-149.8 200.9-40.8-163.5-266.2zM512 134.9c138.7 0 251.2 112.5 251.2 251.2S650.7 637.3 512 637.3 260.8 524.8 260.8 386.1 373.3 134.9 512 134.9z m0 0" p-id="8161" fill="#FF4466"></path></svg>