<?xml version="1.0" standalone="no"?><!DOCTYPE svg PUBLIC "-//W3C//DTD SVG 1.1//EN" "http://www.w3.org/Graphics/SVG/1.1/DTD/svg11.dtd"><svg t="1615033021397" class="icon" viewBox="0 0 1024 1024" version="1.1" xmlns="http://www.w3.org/2000/svg" p-id="24077" xmlns:xlink="http://www.w3.org/1999/xlink" width="200" height="200"><defs><style type="text/css"></style></defs><path d="M575.9 141.7l76.9 155.8c10.4 21 30.4 35.6 53.6 39l172 25c58.4 8.5 81.8 80.3 39.5 121.5L793.4 604.3c-16.8 16.4-24.5 39.9-20.5 63.1l29.4 171.3c10 58.2-51.1 102.6-103.4 75.1l-153.8-80.9a71.3 71.3 0 0 0-66.3 0L325 913.7c-52.3 27.5-113.3-16.9-103.4-75.1L251 667.3c4-23.1-3.7-46.7-20.5-63.1L106.1 483c-42.3-41.2-18.9-113 39.5-121.5l172-25c23.2-3.4 43.3-17.9 53.6-39l76.9-155.8c26.2-53 101.6-53 127.8 0z" p-id="24078" fill="#FF4466"></path></svg>