<?xml version="1.0" standalone="no"?><!DOCTYPE svg PUBLIC "-//W3C//DTD SVG 1.1//EN" "http://www.w3.org/Graphics/SVG/1.1/DTD/svg11.dtd"><svg t="1615188114526" class="icon" viewBox="0 0 1024 1024" version="1.1" xmlns="http://www.w3.org/2000/svg" p-id="26326" xmlns:xlink="http://www.w3.org/1999/xlink" width="200" height="200"><defs><style type="text/css"></style></defs><path d="M3.744703 3.77103h1016.491524v1016.491524H3.744703z" fill="#FFFFFF" p-id="26327"></path><path d="M489.237202 432.875738v393.774181L426.233333 889.653788v116.9736l12.325384 12.325384 73.414956-73.414956 73.44854 73.414956 12.325384-12.325384V889.653788l-63.037453-63.003869V430.323343l-23.307401 24.583599-22.165541-22.031204z" fill="#E7E4D6" p-id="26328"></path><path d="M585.422213 1023.990395a4.869702 4.869702 0 0 1-3.55992-1.477703l-69.88862-69.855036-69.855036 69.855036a5.004039 5.004039 0 0 1-7.11984 0l-12.358968-12.325383a5.004039 5.004039 0 0 1-1.444118-3.559921V889.653788a5.004039 5.004039 0 0 1 1.444118-3.559921l61.559751-61.55975V432.875738a5.037623 5.037623 0 0 1 8.597542-3.55992l18.504868 18.370531 19.781066-20.822174a4.970454 4.970454 0 0 1 5.5078-1.209029 5.037623 5.037623 0 0 1 3.156911 4.668197v394.210774l61.55975 61.55975a5.037623 5.037623 0 0 1 1.477703 3.559921v116.9736a5.037623 5.037623 0 0 1-1.477703 3.559921l-12.325384 12.325383a4.970454 4.970454 0 0 1-3.55992 1.477703zM511.973673 940.365857a5.004039 5.004039 0 0 1 3.55992 1.477703l69.88862 69.855035 7.287761-7.287761v-112.674829L531.015887 830.209839a5.104791 5.104791 0 0 1-1.477702-3.55992V442.950984l-14.609107 15.415125a5.138375 5.138375 0 0 1-3.593504 1.578456 5.33988 5.33988 0 0 1-3.627088-1.477703l-13.433661-13.433661v381.616718a5.104791 5.104791 0 0 1-1.477703 3.55992l-61.526166 61.526166v112.809166l7.287761 7.287761 69.855036-69.855036a5.138375 5.138375 0 0 1 3.55992-1.612039z m-22.736471-113.850275z" fill="#1A3A66" p-id="26329"></path><path d="M534.710144 357.344981V117.755641l-22.736471-10.411087-22.736471 10.411087V356.068783l21.460273 19.948986 24.012669-18.672788z" fill="#E7E4D6" p-id="26330"></path><path d="M510.865396 381.055392a5.037623 5.037623 0 0 1-3.358415-1.343366l-21.426689-19.948986a5.071207 5.071207 0 0 1-1.612039-3.694257v-238.447478a5.037623 5.037623 0 0 1 2.955405-4.601029l22.736471-10.377503a5.071207 5.071207 0 0 1 4.198019 0l22.736471 10.377503a5.071207 5.071207 0 0 1 2.921821 4.601029v239.723676a5.037623 5.037623 0 0 1-1.914297 3.96293l-24.046252 18.706372a5.037623 5.037623 0 0 1-3.190495 1.041109z m-16.42265-27.169579l16.792076 15.549462 18.706372-14.575521V120.912552l-17.698848-8.093781-17.967521 8.093781z m40.300982 3.358415z" fill="#1A3A66" p-id="26331"></path><path d="M430.599273 173.471749a59.544701 59.544701 0 0 0 84.195469 0 59.544701 59.544701 0 0 0 84.195469-84.229052L514.794742 5.047228 430.599273 89.242697a59.544701 59.544701 0 0 0 0 84.229052z" fill="#C7494E" p-id="26332"></path><path d="M472.680215 195.905963A64.54874 64.54874 0 0 1 426.905016 85.682776L511.234822 1.487308a5.004039 5.004039 0 0 1 7.11984 0l84.195469 84.195468a64.582324 64.582324 0 0 1-87.755389 94.64014 64.481572 64.481572 0 0 1-42.114527 15.583047z m42.114527-27.471836a5.037623 5.037623 0 0 1 3.55992 1.444118 54.507078 54.507078 0 0 0 77.243549-77.075628l-80.601964-80.601965-80.601965 80.601965a54.507078 54.507078 0 1 0 77.24355 77.243549 5.037623 5.037623 0 0 1 3.15691-1.612039zM510.865396 950.441102a5.037623 5.037623 0 0 1-5.037623-5.037622v-67.436977a4.76895 4.76895 0 0 1 0.436594-2.048634l22.736471-51.316584a5.037623 5.037623 0 1 1 9.202058 4.063683l-22.299877 50.376228v66.49662A5.037623 5.037623 0 0 1 510.865396 950.441102z" fill="#1A3A66" p-id="26333"></path><path d="M596.740072 955.780983a4.970454 4.970454 0 0 1-3.358415-1.20903l-85.773924-72.776857a5.037623 5.037623 0 1 1 6.515326-7.657187L599.997735 947.082687a5.037623 5.037623 0 0 1-3.358415 8.866216z" fill="#1A3A66" p-id="26334"></path><path d="M510.865396 950.441102a5.037623 5.037623 0 0 1-5.037623-5.037622v-66.496621l-22.299877-50.376228a5.037623 5.037623 0 1 1 9.202058-4.063682l22.736471 51.316584a5.33988 5.33988 0 0 1 0.436594 2.048633v67.571314a5.037623 5.037623 0 0 1-5.037623 5.037622z" fill="#1A3A66" p-id="26335"></path><path d="M427.778204 958.064705a5.037623 5.037623 0 0 1-3.358415-8.799048L507.506981 874.238662a5.037623 5.037623 0 1 1 6.71683 7.455682l-83.15436 75.060579a5.071207 5.071207 0 0 1-3.291247 1.309782z" fill="#1A3A66" p-id="26336"></path><path d="M585.422213 1023.990395a4.869702 4.869702 0 0 1-3.55992-1.477703l-69.88862-69.855036-69.855036 69.855036a5.004039 5.004039 0 0 1-7.11984 0l-12.358968-12.325383a5.004039 5.004039 0 0 1-1.444118-3.559921V889.653788a5.004039 5.004039 0 0 1 1.444118-3.559921l61.559751-61.55975V431.364451a5.037623 5.037623 0 0 1 8.698295-3.358415l18.538452 19.646729 19.57956-20.78859a4.970454 4.970454 0 0 1 5.507801-1.209029 5.037623 5.037623 0 0 1 3.15691 4.668197v394.210774l61.559751 61.55975a5.037623 5.037623 0 0 1 1.477702 3.559921v116.9736a5.037623 5.037623 0 0 1-1.477702 3.559921l-12.325384 12.325383a4.970454 4.970454 0 0 1-3.492752 1.477703zM511.973673 940.365857a5.004039 5.004039 0 0 1 3.55992 1.477703l69.88862 69.855035 7.287761-7.287761v-112.674829L531.015887 830.209839a5.104791 5.104791 0 0 1-1.477702-3.55992V442.950984l-14.609107 15.415125a5.037623 5.037623 0 0 1-3.660672 1.578456 5.071207 5.071207 0 0 1-3.660673-1.61204l-13.43366-14.273264v382.590658a5.104791 5.104791 0 0 1-1.477703 3.55992l-61.425414 61.526166v112.809166l7.287761 7.287761 69.855036-69.855036a5.138375 5.138375 0 0 1 3.55992-1.612039z m-22.736471-113.850275z" fill="#1A3A66" p-id="26337"></path><path d="M511.973673 454.906942c108.611147-133.530588 187.466736 34.490924 267.061176 128.761638a213.494453 213.494453 0 0 0 88.191982 63.17179c164.797433 61.022404 133.127578-190.187052-13.43366-82.75135-94.371467-59.074523-166.778898-333.154786-341.75233-188.910855" fill="#E7E4D6" p-id="26338"></path><path d="M915.084248 661.617396a143.673002 143.673002 0 0 1-49.603793-10.075245 218.699997 218.699997 0 0 1-90.307784-64.649492c-14.374017-17.027165-29.016707-36.942567-43.155635-55.984782-43.424308-58.705097-88.292735-119.425244-137.930112-120.567105-26.027718-0.570931-51.585257 15.012116-78.183905 47.72308a5.037623 5.037623 0 0 1-7.825108-6.347405c28.71445-35.263359 56.857969-52.055435 86.244102-51.45092 54.574247 1.276198 100.95396 64.011393 145.788804 124.664371 14.709859 19.881818 28.580113 38.688943 42.786209 55.481019a208.624751 208.624751 0 0 0 86.076181 61.694087c44.767674 16.590571 79.695192 10.982018 95.815585-15.347957 13.66875-22.333461 9.369978-54.641415-9.537899-72.038006-22.602134-20.78859-58.503593-15.885304-98.502317 13.433661a5.004039 5.004039 0 0 1-5.642138 0.201505c-29.554054-18.504868-56.421375-56.62288-84.900735-97.024615-42.886962-60.820899-87.318795-123.724015-146.460487-131.683459-32.811716-4.433108-66.966799 8.49679-104.51388 39.427794a5.037623 5.037623 0 1 1-6.414573-7.757939c39.830804-32.845301 76.538282-46.480466 112.271819-41.677933 63.574799 8.563959 111.264295 76.202441 153.345238 135.881479 26.867321 38.218765 52.424861 74.355312 79.19143 92.45717 61.089572-43.35714 96.117843-22.031204 108.443226-10.67976 22.669302 20.855758 27.639757 58.066999 11.317859 84.699231-6.414573 10.545424-23.005144 29.621222-58.302087 29.621221z" fill="#1A3A66" p-id="26339"></path><path d="M511.973673 454.906942c108.611147-133.530588 187.466736 34.490924 267.061176 128.761638a213.494453 213.494453 0 0 0 88.191982 63.17179c164.797433 61.022404 133.127578-190.187052-13.43366-82.75135-94.371467-59.074523-166.778898-333.154786-341.75233-188.910855" fill="#E7E4D6" p-id="26340"></path><path d="M915.084248 661.617396a143.673002 143.673002 0 0 1-49.603793-10.075245 218.699997 218.699997 0 0 1-90.307784-64.649492c-14.374017-17.027165-29.016707-36.942567-43.155635-55.984782-43.424308-58.705097-88.292735-119.425244-137.930112-120.567105-26.027718-0.570931-51.585257 15.012116-78.183905 47.72308a5.037623 5.037623 0 0 1-7.825108-6.347405c28.71445-35.263359 56.857969-52.055435 86.244102-51.45092 54.574247 1.276198 100.95396 64.011393 145.788804 124.664371 14.709859 19.881818 28.580113 38.688943 42.786209 55.481019a208.624751 208.624751 0 0 0 86.076181 61.694087c44.767674 16.590571 79.695192 10.982018 95.815585-15.347957 13.66875-22.333461 9.369978-54.641415-9.537899-72.038006-22.602134-20.78859-58.503593-15.885304-98.502317 13.433661a5.004039 5.004039 0 0 1-5.642138 0.201505c-29.554054-18.504868-56.421375-56.62288-84.900735-97.024615-42.886962-60.820899-87.318795-123.724015-146.460487-131.683459-32.811716-4.433108-66.966799 8.49679-104.51388 39.427794a5.037623 5.037623 0 1 1-6.414573-7.757939c39.830804-32.845301 76.538282-46.480466 112.271819-41.677933 63.574799 8.563959 111.264295 76.202441 153.345238 135.881479 26.867321 38.218765 52.424861 74.355312 79.19143 92.45717 61.089572-43.35714 96.117843-22.031204 108.443226-10.67976 22.669302 20.855758 27.639757 58.066999 11.317859 84.699231-6.414573 10.545424-23.005144 29.621222-58.302087 29.621221z" fill="#1A3A66" p-id="26341"></path><path d="M853.759586 564.223356s32.375122 22.031204 67.839987 29.386133" fill="#E7E4D6" p-id="26342"></path><path d="M921.599573 598.512775h-1.041109c-36.002211-7.489266-68.276581-29.251796-69.619946-30.225737a5.037623 5.037623 0 1 1 5.675721-8.328869c0.302257 0.201505 32.005697 21.561025 65.992859 28.613697a5.037623 5.037623 0 0 1-1.007525 10.075246zM535.314659 698.559964a5.037623 5.037623 0 0 1-3.022574-9.067721l207.214217-153.916168a5.037623 5.037623 0 0 1 6.011563 8.09378l-207.214217 153.882584a5.004039 5.004039 0 0 1-2.988989 1.007525zM648.89626 429.886749a4.93687 4.93687 0 0 1-3.123326-1.108277 5.037623 5.037623 0 0 1-0.839604-7.052672l42.282447-53.734643a5.037623 5.037623 0 0 1 7.92586 6.213068l-42.282447 53.734643a5.138375 5.138375 0 0 1-3.96293 1.947881zM680.700452 460.918505a5.004039 5.004039 0 0 1-3.727841-8.396038l43.928071-48.999277a5.037623 5.037623 0 0 1 7.52285 6.71683l-43.961655 48.999277a5.037623 5.037623 0 0 1-3.761425 1.679208zM584.246768 411.012455a5.037623 5.037623 0 0 1-4.970455-4.231603l-10.478255-65.489096a5.037623 5.037623 0 1 1 10.075246-1.578455l10.478255 65.489096a5.037623 5.037623 0 0 1-4.164435 5.776474zM610.79504 374.304977l16.409217-16.409216 16.412575 16.409216-16.412575 16.409217z" fill="#1A3A66" p-id="26343"></path><path d="M511.973673 454.906942C403.39611 321.376354 324.540522 489.397866 244.946082 583.66858a213.393701 213.393701 0 0 1-88.225567 63.17179C-8.043334 707.862774 23.626521 456.75407 170.18776 564.223356c94.371467-59.074523 166.812482-333.154786 341.752329-188.910854" fill="#E7E4D6" p-id="26344"></path><path d="M108.863098 661.617396c-35.263359 0-51.85393-19.142967-58.302087-29.68839-16.288314-26.632232-11.317859-63.809889 11.351443-84.699231 12.325384-11.351443 47.353654-32.67738 108.443227 10.679761 26.867321-18.101858 52.25694-54.238405 79.157845-92.45717 42.080942-59.679038 89.804022-127.31752 153.378822-135.881479 35.733538-4.802534 72.441016 8.832632 112.27182 41.677933a5.037623 5.037623 0 1 1-6.414573 7.757939c-37.547082-30.931004-71.735748-43.860902-104.513881-39.427795-59.242444 7.959444-103.573524 70.86256-146.460486 131.68346-28.479361 40.300982-55.380266 78.519747-84.900736 97.024614a5.004039 5.004039 0 0 1-5.642138-0.201504c-40.032309-29.318965-75.933767-34.222251-98.502317-13.433661-18.941462 17.396591-23.206649 49.704545-9.571483 72.038006 16.120393 26.329975 51.047911 31.938528 95.815585 15.347957a208.490415 208.490415 0 0 0 86.109765-61.694087c14.206096-16.792076 28.076351-35.599201 42.78621-55.481019 44.834843-60.652978 91.214556-123.388174 145.788803-124.664372C459.04505 399.661012 487.35649 416.453088 515.903019 451.716447a5.037623 5.037623 0 1 1-7.825108 6.347405c-26.598648-32.710964-52.25694-48.394763-78.217489-47.72308-49.603792 1.141861-94.505803 61.862008-137.896528 120.567105-14.138928 19.142967-28.781618 38.957616-43.189219 55.984782A218.498492 218.498492 0 0 1 158.466891 651.542151a143.370744 143.370744 0 0 1-49.603793 10.075245z" fill="#1A3A66" p-id="26345"></path><path d="M511.973673 454.906942C403.39611 321.376354 324.540522 489.397866 244.946082 583.66858a213.393701 213.393701 0 0 1-88.225567 63.17179C-8.043334 707.862774 23.626521 456.75407 170.18776 564.223356c94.371467-59.074523 166.812482-333.154786 341.752329-188.910854" fill="#E7E4D6" p-id="26346"></path><path d="M108.863098 661.617396c-35.263359 0-51.85393-19.142967-58.302087-29.68839-16.288314-26.632232-11.317859-63.809889 11.351443-84.699231 12.325384-11.351443 47.353654-32.67738 108.443227 10.679761 26.867321-18.101858 52.25694-54.238405 79.157845-92.45717 42.080942-59.679038 89.804022-127.31752 153.378822-135.881479 35.733538-4.802534 72.441016 8.832632 112.27182 41.677933a5.037623 5.037623 0 1 1-6.414573 7.757939c-37.547082-30.931004-71.735748-43.860902-104.513881-39.427795-59.242444 7.959444-103.573524 70.86256-146.460486 131.68346-28.479361 40.300982-55.380266 78.519747-84.900736 97.024614a5.004039 5.004039 0 0 1-5.642138-0.201504c-40.032309-29.318965-75.933767-34.222251-98.502317-13.433661-18.941462 17.396591-23.206649 49.704545-9.571483 72.038006 16.120393 26.329975 51.047911 31.938528 95.815585 15.347957a208.490415 208.490415 0 0 0 86.109765-61.694087c14.206096-16.792076 28.076351-35.599201 42.78621-55.481019 44.834843-60.652978 91.214556-123.388174 145.788803-124.664372C459.04505 399.661012 487.35649 416.453088 515.903019 451.716447a5.037623 5.037623 0 1 1-7.825108 6.347405c-26.598648-32.710964-52.25694-48.394763-78.217489-47.72308-49.603792 1.141861-94.505803 61.862008-137.896528 120.567105-14.138928 19.142967-28.781618 38.957616-43.189219 55.984782A218.498492 218.498492 0 0 1 158.466891 651.542151a143.370744 143.370744 0 0 1-49.603793 10.075245z" fill="#1A3A66" p-id="26347"></path><path d="M170.18776 564.223356s-32.375122 22.031204-67.806403 29.386133" fill="#E7E4D6" p-id="26348"></path><path d="M102.381357 598.512775a5.037623 5.037623 0 0 1-1.041109-10.075245c34.087914-7.086256 65.690601-28.412192 66.026443-28.613698a5.037623 5.037623 0 0 1 5.675722 8.32887c-1.37695 0.906772-33.584152 22.669302-69.653531 30.225737zM488.666272 698.559964a4.93687 4.93687 0 0 1-2.98899-1.007525l-207.214217-153.748247a5.037623 5.037623 0 1 1 6.011563-8.093781l207.180633 153.916168a5.037623 5.037623 0 0 1-2.988989 9.067721zM375.08467 429.886749a5.138375 5.138375 0 0 1-3.96293-1.914297l-42.282447-53.734643a5.037623 5.037623 0 1 1 7.892276-6.213068l42.316031 53.734643a5.037623 5.037623 0 0 1-0.839604 7.052672 5.071207 5.071207 0 0 1-3.123326 1.074693zM343.246894 460.918505a4.970454 4.970454 0 0 1-3.727841-1.679208l-43.961654-48.999277a5.037623 5.037623 0 0 1 7.489265-6.71683l43.961655 48.999277a5.037623 5.037623 0 0 1-0.40301 7.11984 4.903286 4.903286 0 0 1-3.358415 1.276198zM439.734162 411.012455h-0.806019a5.037623 5.037623 0 0 1-4.198019-5.776474l10.478255-65.489096a5.037623 5.037623 0 1 1 10.075246 1.578455l-10.478256 65.489096a4.970454 4.970454 0 0 1-5.071207 4.198019zM380.337232 374.308336l16.409216-16.409217 16.409217 16.409217-16.409217 16.412575z" fill="#1A3A66" p-id="26349"></path></svg>