<?xml version="1.0" standalone="no"?><!DOCTYPE svg PUBLIC "-//W3C//DTD SVG 1.1//EN" "http://www.w3.org/Graphics/SVG/1.1/DTD/svg11.dtd"><svg t="1615960636526" class="icon" viewBox="0 0 1024 1024" version="1.1" xmlns="http://www.w3.org/2000/svg" p-id="6602" xmlns:xlink="http://www.w3.org/1999/xlink" width="200" height="200"><defs><style type="text/css"></style></defs><path d="M269.952 147.936c0-14.88 11.904-28.272 23.312-39.68 11.904-11.904 37.2-37.2 63.488-11.904l377.952 377.952c8.928 8.928 19.84 22.816 19.84 37.696s-10.912 28.768-19.84 37.696l-377.952 377.952c-10.416 10.416-21.824 13.392-34.224 8.928-9.424-3.472-18.352-11.408-28.768-21.824-14.384-14.384-21.824-28.768-21.824-41.168 0-7.936 2.976-15.872 9.424-21.824L621.12 512 281.36 171.744c-7.44-7.44-11.408-15.376-11.408-23.808z" fill="#ffffff" p-id="6603"></path></svg>