<?xml version="1.0" standalone="no"?><!DOCTYPE svg PUBLIC "-//W3C//DTD SVG 1.1//EN" "http://www.w3.org/Graphics/SVG/1.1/DTD/svg11.dtd"><svg t="1615960326743" class="icon" viewBox="0 0 1024 1024" version="1.1" xmlns="http://www.w3.org/2000/svg" p-id="2258" xmlns:xlink="http://www.w3.org/1999/xlink" width="200" height="200"><defs><style type="text/css"></style></defs><path d="M951.45 870.595c-2.381 32.43-74.512 20.47-95.232 20.47H127.432c-11.9 0-27.551 2.503-35.707-8.305-7.905-10.481-3.927-33.531-3.927-45.44V306.657c0-13.593-4.178-37.724 8.304-47.145 8.223-6.205 23.409-3.927 33.05-3.927h730.122c19.364 0 81.772-10.588 91.136 13.973 4.245 11.14 1.034 28.365 1.034 39.777v93.015l0.006 468.245c0 33.013 51.2 33.013 51.2 0V301.604c0-19.262 1.914-40.417-7.783-57.892-25.559-46.1-74.148-39.327-118.38-39.327H108.934c-39.997 0-72.335 32.963-72.335 72.776v576.753c0 26.347 3.333 49.54 23.342 69.55 16.21 16.21 38.41 18.8 59.94 18.8h810.43c41.282 0 69.442-32.389 72.334-71.67 2.427-32.957-48.793-32.726-51.194 0z" p-id="2259" fill="#ffffff"></path><path d="M77.998 277.617l415.447 355.978c11.305 9.692 24.883 9.523 36.204 0L971.023 262.44c25.303-21.279-11.11-57.303-36.198-36.204a33642133.146 33642133.146 0 0 1-441.38 371.16h36.204L114.207 241.412c-24.924-21.36-61.317 14.69-36.209 36.204zM408.11 539.09L77.655 900.265" p-id="2260" fill="#ffffff"></path><path d="M390.01 520.99L59.55 882.167c-22.235 24.3 13.87 60.61 36.204 36.198l330.46-361.175c22.237-24.3-13.87-60.61-36.203-36.198zM603.336 538.081L964.29 900.265M585.236 556.18l360.955 362.184c23.327 23.409 59.525-12.8 36.199-36.198L621.435 519.982c-23.327-23.414-59.525 12.8-36.199 36.198z" p-id="2261" fill="#ffffff"></path></svg>