<?xml version="1.0" standalone="no"?><!DOCTYPE svg PUBLIC "-//W3C//DTD SVG 1.1//EN" "http://www.w3.org/Graphics/SVG/1.1/DTD/svg11.dtd"><svg t="1614193255191" class="icon" viewBox="0 0 1024 1024" version="1.1" xmlns="http://www.w3.org/2000/svg" p-id="4801" xmlns:xlink="http://www.w3.org/1999/xlink" width="200" height="200"><defs><style type="text/css"></style></defs><path d="M667.707645 709.00028l-5.304957 59.214786c119.719966 17.061887 214.779053 52.762812 214.779053 94.342201 0 58.067768-185.816858 105.095491-365.181742 105.095491-179.364884 0-365.181742-47.027723-365.181742-105.095491 0-41.005881 92.908429-76.42005 210.477737-93.768692l-5.304957-59.358163C154.704004 731.08037 12.33044 791.298796 12.33044 862.41389c0 89.323999 223.66844 161.58611 499.66956 161.58611C788.00112 1024 1011.66956 951.737889 1011.66956 862.41389 1011.66956 790.868664 867.288715 730.076729 667.707645 709.00028L667.707645 709.00028zM667.707645 709.00028" p-id="4802" fill="#FF4466"></path><path d="M487.625875 610.356763l68.104173 0 0 271.126295L487.625875 881.483058 487.625875 610.356763 487.625875 610.356763zM487.625875 610.356763" p-id="4803" fill="#FF4466"></path><path d="M876.608233 481.173901 710.00392 379.089331l-425.543545 0L284.460375 583.401848l423.536264 0L876.608233 481.173901zM876.608233 481.173901" p-id="4804" fill="#FF4466"></path><path d="M881.91319 339.230468l0-218.363484-649.49874 0-166.604313 109.110053 168.611593 109.25343L881.91319 339.230468zM881.91319 339.230468" p-id="4805" fill="#FF4466"></path><path d="M487.625875 0l68.104173 0 0 93.912069L487.625875 93.912069 487.625875 0 487.625875 0zM487.625875 0" p-id="4806" fill="#FF4466"></path></svg>